#N canvas 556 98 438 227 10;
#X text 26 9 Ripples - By Andrew R. Brown;
#N canvas 970 196 568 480 ripples_main 0;
#X obj 23 22 inlet go;
#X obj 365 22 inlet chan;
#X obj 59 160 int;
#X obj 90 160 + 1;
#X floatatom 59 183 15 0 0 0 - - -, f 15;
#X obj 58 79 tgl 25 0 empty empty empty 17 7 0 10 -4034 -1 -1 0 1;
#X obj 59 206 % 16;
#X obj 59 231 select 0;
#X obj 59 301 bng 15 250 50 0 empty empty empty 17 7 0 10 -262144 -1
-1;
#X obj 59 111 metro 30;
#X floatatom 104 86 5 0 0 0 - - -, f 5;
#X obj 100 204 s tick;
#X floatatom 174 134 5 0 0 0 - - -, f 5;
#X obj 104 54 / 16;
#X text 130 127 tempo;
#X obj 174 54 loadbang;
#N canvas 0 22 196 225 tempo-dur-calc 0;
#X floatatom 32 158 10 0 0 0 - - -, f 10;
#X floatatom 33 109 5 0 0 0 - - -, f 5;
#X msg 32 61 60;
#X obj 32 83 / 1;
#X obj 31 40 bng 15 250 50 0 empty empty empty 17 7 0 10 -262144 -1
-1;
#X obj 32 129 * 1000;
#X obj 48 10 inlet tempo-in-bpm;
#X obj 32 187 outlet beat-dur;
#X connect 0 0 7 0;
#X connect 1 0 5 0;
#X connect 2 0 3 0;
#X connect 3 0 1 0;
#X connect 4 0 2 0;
#X connect 5 0 0 0;
#X connect 6 0 4 0;
#X connect 6 0 3 1;
#X restore 174 155 pd tempo-dur-calc;
#X msg 73 135 0;
#X obj 59 350 spigot;
#X obj 92 329 tgl 15 0 empty empty empty 17 7 0 10 -262144 -1 -1 1
1;
#X msg 92 306 0;
#X obj 183 185 notein, f 16;
#X floatatom 182 211 5 0 0 0 - - -, f 5;
#X floatatom 274 233 5 0 0 0 - - -, f 5;
#X obj 229 210 select 0;
#X obj 198 79 bng 15 250 50 0 empty empty empty 17 7 0 10 -262144 -1
-1;
#N canvas 0 22 424 227 MobMuPlat-io 0;
#X obj 6 40 receive fromGUI;
#X obj 6 72 list trim;
#X floatatom 9 141 5 0 0 0 - - -, f 5;
#X floatatom 99 138 5 0 0 0 - - -, f 5;
#X obj 10 166 outlet tog;
#X obj 99 169 outlet tempo;
#X obj 6 105 route /startToggle /tempoKnob /singleChan /baseChan;
#X floatatom 207 140 5 0 0 0 - - -, f 5;
#X floatatom 296 142 5 0 0 0 - - -, f 5;
#X obj 207 171 outlet chans;
#X obj 296 173 outlet baseChan, f 17;
#X connect 0 0 1 0;
#X connect 1 0 6 0;
#X connect 2 0 4 0;
#X connect 3 0 5 0;
#X connect 6 0 2 0;
#X connect 6 1 3 0;
#X connect 6 2 7 0;
#X connect 6 3 8 0;
#X connect 7 0 9 0;
#X connect 8 0 10 0;
#X restore 283 50 pd MobMuPlat-io;
#X obj 283 84 s go;
#X obj 58 54 r go;
#X obj 316 84 + 60;
#N canvas 133 382 413 281 output-a 0;
#X obj 38 177 makenote 80 200;
#X floatatom 185 171 10 0 0 0 - - -, f 10;
#X obj 38 13 inlet pitch;
#X obj 121 15 inlet vel;
#X obj 196 16 inlet dur;
#X obj 269 15 inlet ch;
#X obj 8 50 bng 15 250 50 0 empty empty empty 17 7 0 10 -262144 -1
-1;
#X obj 38 239 noteout 2, f 30;
#X floatatom 209 41 15 0 0 0 - - -, f 15;
#X obj 87 39 bng 15 250 50 0 empty empty empty 17 7 0 10 -262144 -1
-1;
#X floatatom 122 38 5 0 0 0 - - -, f 5;
#N canvas 1016 247 177 321 \$0-dur-var 0;
#X obj 67 51 bng 15 250 50 0 empty empty empty 17 7 0 10 -262144 -1
-1;
#X floatatom 67 106 5 0 0 0 - - -, f 5;
#X obj 67 158 / 10;
#X obj 52 15 inlet;
#X obj 52 270 outlet;
#X obj 67 185 + 1;
#X floatatom 67 210 5 0 0 0 - - -, f 5;
#X obj 52 240 * 1;
#X obj 67 131 - 5;
#X obj 67 80 random 10;
#X connect 0 0 9 0;
#X connect 1 0 8 0;
#X connect 2 0 5 0;
#X connect 3 0 0 0;
#X connect 3 0 7 0;
#X connect 5 0 6 0;
#X connect 6 0 7 1;
#X connect 7 0 4 0;
#X connect 8 0 2 0;
#X connect 9 0 1 0;
#X restore 183 143 pd \$0-dur-var;
#N canvas 0 22 245 285 \$0-parse-vel 0;
#X obj 59 152 + 0;
#X obj 60 81 bng 15 250 50 0 empty empty empty 17 7 0 10 -262144 -1
-1;
#X obj 49 48 route 0;
#X msg 25 150 0;
#X obj 51 18 inlet;
#X obj 25 237 outlet;
#X obj 59 180 min 127;
#X floatatom 83 238 5 0 0 0 - - -, f 5;
#X obj 60 206 max 1;
#X obj 60 127 - 10;
#X obj 111 73 r dyn;
#X obj 59 103 random 30;
#X connect 0 0 6 0;
#X connect 1 0 11 0;
#X connect 2 0 3 0;
#X connect 2 1 1 0;
#X connect 2 1 0 1;
#X connect 3 0 5 0;
#X connect 4 0 2 0;
#X connect 6 0 8 0;
#X connect 8 0 5 0;
#X connect 8 0 7 0;
#X connect 9 0 0 0;
#X connect 10 0 11 1;
#X connect 11 0 9 0;
#X restore 142 207 pd \$0-parse-vel;
#N canvas 42 117 386 300 \$0-pitch-quantise-2 0;
#N canvas 458 336 431 364 inlist 0;
#X obj 54 120 int;
#X obj 98 120 + 1;
#X msg 70 82 0;
#X obj 43 76 bng 15 250 50 0 empty empty empty 17 7 0 10 -262144 -1
-1;
#X floatatom 53 149 5 0 0 0 - - -, f 5;
#X obj 226 233 bng 15 250 50 0 empty empty empty 17 7 0 10 -262144
-1 -1;
#X obj 278 239 bng 15 250 50 0 empty empty empty 17 7 0 10 -262144
-1 -1;
#X obj 81 180 < 10;
#X floatatom 81 206 5 0 0 0 - - -, f 5;
#X obj 44 242 select 1;
#X obj 42 45 bng 15 250 50 0 empty empty empty 17 7 0 10 -262144 -1
-1;
#X floatatom 297 252 5 0 0 0 - - -, f 5;
#X obj 136 91 list;
#X obj 133 130 list length;
#X floatatom 132 166 5 0 0 0 - - -, f 5;
#X obj 245 180 list split 1;
#X obj 247 153 list split 3;
#X obj 243 206 select 2;
#X obj 35 8 inlet val;
#X obj 157 8 inlet list;
#X obj 211 293 int;
#X msg 226 259 1;
#X msg 171 250 0;
#X obj 120 245 == 4;
#X obj 129 216 - 1;
#X obj 212 320 outlet result;
#X floatatom 164 325 5 0 0 0 - - -, f 5;
#X floatatom 367 96 5 0 0 0 - - -, f 5;
#X msg 367 65 2;
#X obj 174 33 bng 15 250 50 0 empty empty empty 17 7 0 10 -262144 -1
-1;
#X msg 259 33 2 4 6;
#X msg 214 65 1 4 5;
#X obj 140 287 delay 5;
#X obj 330 324 outlet val;
#X connect 0 0 1 0;
#X connect 0 0 4 0;
#X connect 0 0 16 1;
#X connect 1 0 0 1;
#X connect 2 0 0 1;
#X connect 3 0 0 0;
#X connect 3 0 12 0;
#X connect 4 0 7 0;
#X connect 4 0 23 0;
#X connect 5 0 21 0;
#X connect 7 0 8 0;
#X connect 8 0 9 0;
#X connect 9 0 3 0;
#X connect 10 0 22 0;
#X connect 10 0 2 0;
#X connect 10 0 3 0;
#X connect 12 0 13 0;
#X connect 12 0 16 0;
#X connect 13 0 14 0;
#X connect 14 0 7 1;
#X connect 14 0 24 0;
#X connect 15 0 17 0;
#X connect 16 1 15 0;
#X connect 17 0 5 0;
#X connect 17 1 6 0;
#X connect 17 1 11 0;
#X connect 18 0 17 1;
#X connect 18 0 10 0;
#X connect 18 0 33 0;
#X connect 19 0 12 1;
#X connect 19 0 29 0;
#X connect 20 0 25 0;
#X connect 20 0 26 0;
#X connect 21 0 20 1;
#X connect 22 0 20 1;
#X connect 23 0 32 0;
#X connect 24 0 23 1;
#X connect 27 0 17 1;
#X connect 27 0 10 0;
#X connect 28 0 27 0;
#X connect 30 0 12 1;
#X connect 31 0 12 1;
#X connect 32 0 20 0;
#X restore 107 89 pd inlist;
#X floatatom 105 116 5 0 0 0 - - -, f 5;
#X floatatom 105 44 5 0 0 0 - - -, f 5;
#X floatatom 157 112 5 0 0 0 - - -, f 5;
#X obj 106 167 select -1;
#X obj 106 141 expr if($i1 == 0 && $i2 >= 0 \, $i2 - 1 \, -1);
#X obj 22 164 select 1;
#X obj 23 193 bng 15 250 50 0 empty empty empty 17 7 0 10 -262144 -1
-1;
#X floatatom 159 199 5 0 0 0 - - -, f 5;
#X obj 105 15 inlet pitch;
#X obj 157 42 bng 15 250 50 0 empty empty empty 17 7 0 10 -262144 -1
-1;
#X obj 24 271 outlet pitch;
#X obj 23 221 int;
#X obj 106 64 % 12;
#X obj 67 218 int;
#X obj 65 191 bng 15 250 50 0 empty empty empty 17 7 0 10 -262144 -1
-1;
#X floatatom 24 246 5 0 0 0 - - -, f 5;
#X obj 98 218 - 1;
#X obj 246 18 inlet pitch-class-set;
#X obj 157 66 list;
#X msg 248 74 0 2 4 7 9;
#X obj 250 44 loadbang;
#X connect 0 0 1 0;
#X connect 0 1 3 0;
#X connect 1 0 5 0;
#X connect 1 0 6 0;
#X connect 2 0 12 1;
#X connect 2 0 13 0;
#X connect 2 0 14 1;
#X connect 3 0 5 1;
#X connect 4 1 8 0;
#X connect 5 0 4 0;
#X connect 6 0 7 0;
#X connect 7 0 12 0;
#X connect 8 0 15 0;
#X connect 8 0 0 0;
#X connect 9 0 10 0;
#X connect 9 0 2 0;
#X connect 10 0 19 0;
#X connect 12 0 16 0;
#X connect 13 0 0 0;
#X connect 14 0 17 0;
#X connect 15 0 14 0;
#X connect 16 0 11 0;
#X connect 17 0 14 1;
#X connect 17 0 12 1;
#X connect 18 0 19 1;
#X connect 19 0 0 1;
#X connect 20 0 19 1;
#X connect 21 0 20 0;
#X restore 38 117 pd \$0-pitch-quantise-2;
#X obj 342 19 inlet pc;
#X connect 0 0 7 0;
#X connect 0 1 12 0;
#X connect 2 0 6 0;
#X connect 2 0 13 0;
#X connect 3 0 9 0;
#X connect 3 0 10 0;
#X connect 4 0 11 0;
#X connect 4 0 8 0;
#X connect 5 0 7 2;
#X connect 10 0 12 0;
#X connect 11 0 0 2;
#X connect 11 0 1 0;
#X connect 12 0 7 1;
#X connect 13 0 0 0;
#X connect 14 0 13 1;
#X restore 59 445 pd output-a;
#X obj 38 377 bng 15 250 50 0 empty empty empty 17 7 0 10 -262144 -1
-1;
#X floatatom 168 314 5 0 0 0 - - -, f 5;
#N canvas 618 142 419 279 output-b 0;
#X obj 38 171 makenote 80 200;
#X floatatom 195 133 10 0 0 0 - - -, f 10;
#X obj 58 198 bng 15 250 50 0 empty empty empty 17 7 0 10 -262144 -1
-1;
#X obj 38 13 inlet pitch;
#X obj 121 15 inlet vel;
#X obj 196 16 inlet dur;
#X obj 269 15 inlet ch;
#X obj 8 50 bng 15 250 50 0 empty empty empty 17 7 0 10 -262144 -1
-1;
#X floatatom 209 41 15 0 0 0 - - -, f 15;
#X obj 38 233 noteout 3, f 35;
#N canvas 1016 247 177 321 \$0-dur-var 0;
#X obj 67 51 bng 15 250 50 0 empty empty empty 17 7 0 10 -262144 -1
-1;
#X floatatom 67 106 5 0 0 0 - - -, f 5;
#X obj 67 158 / 10;
#X obj 52 15 inlet;
#X obj 52 270 outlet;
#X obj 67 185 + 1;
#X floatatom 67 210 5 0 0 0 - - -, f 5;
#X obj 52 240 * 1;
#X obj 67 131 - 3;
#X obj 67 80 random 12;
#X connect 0 0 9 0;
#X connect 1 0 8 0;
#X connect 2 0 5 0;
#X connect 3 0 0 0;
#X connect 3 0 7 0;
#X connect 5 0 6 0;
#X connect 6 0 7 1;
#X connect 7 0 4 0;
#X connect 8 0 2 0;
#X connect 9 0 1 0;
#X restore 196 107 pd \$0-dur-var;
#N canvas 0 22 170 265 \$0-parse-vel 0;
#X obj 59 152 + 0;
#X obj 60 81 bng 15 250 50 0 empty empty empty 17 7 0 10 -262144 -1
-1;
#X obj 49 48 route 0;
#X msg 25 150 0;
#X obj 51 18 inlet;
#X obj 25 237 outlet;
#X obj 59 180 min 127;
#X obj 60 206 max 1;
#X obj 60 127 - 10;
#X obj 59 103 random 30;
#X obj 111 76 r dyn;
#X connect 0 0 6 0;
#X connect 1 0 9 0;
#X connect 2 0 3 0;
#X connect 2 1 1 0;
#X connect 2 1 0 1;
#X connect 3 0 5 0;
#X connect 4 0 2 0;
#X connect 6 0 7 0;
#X connect 7 0 5 0;
#X connect 8 0 0 0;
#X connect 9 0 8 0;
#X connect 10 0 9 1;
#X restore 142 201 pd \$0-parse-vel;
#N canvas 42 117 386 300 \$0-pitch-quantise-2 0;
#N canvas 458 336 431 364 inlist 0;
#X obj 54 120 int;
#X obj 98 120 + 1;
#X msg 70 82 0;
#X obj 43 76 bng 15 250 50 0 empty empty empty 17 7 0 10 -262144 -1
-1;
#X floatatom 53 149 5 0 0 0 - - -, f 5;
#X obj 226 233 bng 15 250 50 0 empty empty empty 17 7 0 10 -262144
-1 -1;
#X obj 278 239 bng 15 250 50 0 empty empty empty 17 7 0 10 -262144
-1 -1;
#X obj 81 180 < 10;
#X floatatom 81 206 5 0 0 0 - - -, f 5;
#X obj 44 242 select 1;
#X obj 42 45 bng 15 250 50 0 empty empty empty 17 7 0 10 -262144 -1
-1;
#X floatatom 297 252 5 0 0 0 - - -, f 5;
#X obj 136 91 list;
#X obj 133 130 list length;
#X floatatom 132 166 5 0 0 0 - - -, f 5;
#X obj 245 180 list split 1;
#X obj 247 153 list split 3;
#X obj 243 206 select 2;
#X obj 35 8 inlet val;
#X obj 157 8 inlet list;
#X obj 211 293 int;
#X msg 226 259 1;
#X msg 171 250 0;
#X obj 120 245 == 4;
#X obj 129 216 - 1;
#X obj 212 320 outlet result;
#X floatatom 164 325 5 0 0 0 - - -, f 5;
#X floatatom 367 96 5 0 0 0 - - -, f 5;
#X msg 367 65 2;
#X obj 174 33 bng 15 250 50 0 empty empty empty 17 7 0 10 -262144 -1
-1;
#X msg 259 33 2 4 6;
#X msg 214 65 1 4 5;
#X obj 140 287 delay 5;
#X obj 330 324 outlet val;
#X connect 0 0 1 0;
#X connect 0 0 4 0;
#X connect 0 0 16 1;
#X connect 1 0 0 1;
#X connect 2 0 0 1;
#X connect 3 0 0 0;
#X connect 3 0 12 0;
#X connect 4 0 7 0;
#X connect 4 0 23 0;
#X connect 5 0 21 0;
#X connect 7 0 8 0;
#X connect 8 0 9 0;
#X connect 9 0 3 0;
#X connect 10 0 22 0;
#X connect 10 0 2 0;
#X connect 10 0 3 0;
#X connect 12 0 13 0;
#X connect 12 0 16 0;
#X connect 13 0 14 0;
#X connect 14 0 7 1;
#X connect 14 0 24 0;
#X connect 15 0 17 0;
#X connect 16 1 15 0;
#X connect 17 0 5 0;
#X connect 17 1 6 0;
#X connect 17 1 11 0;
#X connect 18 0 17 1;
#X connect 18 0 10 0;
#X connect 18 0 33 0;
#X connect 19 0 12 1;
#X connect 19 0 29 0;
#X connect 20 0 25 0;
#X connect 20 0 26 0;
#X connect 21 0 20 1;
#X connect 22 0 20 1;
#X connect 23 0 32 0;
#X connect 24 0 23 1;
#X connect 27 0 17 1;
#X connect 27 0 10 0;
#X connect 28 0 27 0;
#X connect 30 0 12 1;
#X connect 31 0 12 1;
#X connect 32 0 20 0;
#X restore 107 89 pd inlist;
#X floatatom 105 116 5 0 0 0 - - -, f 5;
#X floatatom 105 44 5 0 0 0 - - -, f 5;
#X floatatom 157 112 5 0 0 0 - - -, f 5;
#X obj 106 167 select -1;
#X obj 106 141 expr if($i1 == 0 && $i2 >= 0 \, $i2 - 1 \, -1);
#X obj 22 164 select 1;
#X obj 23 193 bng 15 250 50 0 empty empty empty 17 7 0 10 -262144 -1
-1;
#X floatatom 159 199 5 0 0 0 - - -, f 5;
#X obj 105 15 inlet pitch;
#X obj 157 42 bng 15 250 50 0 empty empty empty 17 7 0 10 -262144 -1
-1;
#X obj 24 271 outlet pitch;
#X obj 23 221 int;
#X obj 106 64 % 12;
#X obj 67 218 int;
#X obj 65 191 bng 15 250 50 0 empty empty empty 17 7 0 10 -262144 -1
-1;
#X floatatom 24 246 5 0 0 0 - - -, f 5;
#X obj 98 218 - 1;
#X obj 246 18 inlet pitch-class-set;
#X obj 157 66 list;
#X msg 248 74 0 2 4 7 9;
#X obj 250 44 loadbang;
#X connect 0 0 1 0;
#X connect 0 1 3 0;
#X connect 1 0 5 0;
#X connect 1 0 6 0;
#X connect 2 0 12 1;
#X connect 2 0 13 0;
#X connect 2 0 14 1;
#X connect 3 0 5 1;
#X connect 4 1 8 0;
#X connect 5 0 4 0;
#X connect 6 0 7 0;
#X connect 7 0 12 0;
#X connect 8 0 15 0;
#X connect 8 0 0 0;
#X connect 9 0 10 0;
#X connect 9 0 2 0;
#X connect 10 0 19 0;
#X connect 12 0 16 0;
#X connect 13 0 0 0;
#X connect 14 0 17 0;
#X connect 15 0 14 0;
#X connect 16 0 11 0;
#X connect 17 0 14 1;
#X connect 17 0 12 1;
#X connect 18 0 19 1;
#X connect 19 0 0 1;
#X connect 20 0 19 1;
#X connect 21 0 20 0;
#X restore 38 107 pd \$0-pitch-quantise-2;
#X obj 342 16 inlet pc;
#X connect 0 0 2 0;
#X connect 0 0 9 0;
#X connect 0 1 11 0;
#X connect 3 0 7 0;
#X connect 3 0 12 0;
#X connect 4 0 11 0;
#X connect 5 0 10 0;
#X connect 5 0 8 0;
#X connect 6 0 9 2;
#X connect 10 0 0 2;
#X connect 10 0 1 0;
#X connect 11 0 9 1;
#X connect 12 0 0 0;
#X connect 13 0 12 1;
#X restore 169 440 pd output-b;
#N canvas 834 229 401 265 output-c 0;
#X obj 38 171 makenote 80 200;
#X floatatom 166 172 10 0 0 0 - - -, f 10;
#X obj 58 198 bng 15 250 50 0 empty empty empty 17 7 0 10 -262144 -1
-1;
#X obj 38 13 inlet pitch;
#X obj 121 15 inlet vel;
#X obj 196 16 inlet dur;
#X obj 269 15 inlet ch;
#X obj 8 50 bng 15 250 50 0 empty empty empty 17 7 0 10 -262144 -1
-1;
#X floatatom 196 39 15 0 0 0 - - -, f 15;
#X obj 38 233 noteout 4, f 27;
#N canvas 1016 247 177 321 \$0-dur-var 0;
#X obj 67 51 bng 15 250 50 0 empty empty empty 17 7 0 10 -262144 -1
-1;
#X floatatom 67 106 5 0 0 0 - - -, f 5;
#X obj 67 158 / 10;
#X obj 52 15 inlet;
#X obj 52 270 outlet;
#X obj 67 185 + 1;
#X floatatom 67 210 5 0 0 0 - - -, f 5;
#X obj 52 240 * 1;
#X obj 67 131 - 3;
#X obj 67 80 random 10;
#X connect 0 0 9 0;
#X connect 1 0 8 0;
#X connect 2 0 5 0;
#X connect 3 0 0 0;
#X connect 3 0 7 0;
#X connect 5 0 6 0;
#X connect 6 0 7 1;
#X connect 7 0 4 0;
#X connect 8 0 2 0;
#X connect 9 0 1 0;
#X restore 166 143 pd \$0-dur-var;
#N canvas 0 22 170 265 \$0-parse-vel 0;
#X obj 59 152 + 0;
#X obj 60 81 bng 15 250 50 0 empty empty empty 17 7 0 10 -262144 -1
-1;
#X obj 49 48 route 0;
#X msg 25 150 0;
#X obj 51 18 inlet;
#X obj 25 237 outlet;
#X obj 59 180 min 127;
#X obj 60 206 max 1;
#X obj 60 127 - 10;
#X obj 59 103 random 30;
#X obj 110 74 r dyn;
#X connect 0 0 6 0;
#X connect 1 0 9 0;
#X connect 2 0 3 0;
#X connect 2 1 1 0;
#X connect 2 1 0 1;
#X connect 3 0 5 0;
#X connect 4 0 2 0;
#X connect 6 0 7 0;
#X connect 7 0 5 0;
#X connect 8 0 0 0;
#X connect 9 0 8 0;
#X connect 10 0 9 1;
#X restore 104 201 pd \$0-parse-vel;
#X floatatom 269 69 5 0 0 0 - - -, f 5;
#N canvas 42 117 386 300 \$0-pitch-quantise-2 0;
#N canvas 458 336 431 364 inlist 0;
#X obj 54 120 int;
#X obj 98 120 + 1;
#X msg 70 82 0;
#X obj 43 76 bng 15 250 50 0 empty empty empty 17 7 0 10 -262144 -1
-1;
#X floatatom 53 149 5 0 0 0 - - -, f 5;
#X obj 226 233 bng 15 250 50 0 empty empty empty 17 7 0 10 -262144
-1 -1;
#X obj 278 239 bng 15 250 50 0 empty empty empty 17 7 0 10 -262144
-1 -1;
#X obj 81 180 < 10;
#X floatatom 81 206 5 0 0 0 - - -, f 5;
#X obj 44 242 select 1;
#X obj 42 45 bng 15 250 50 0 empty empty empty 17 7 0 10 -262144 -1
-1;
#X floatatom 297 252 5 0 0 0 - - -, f 5;
#X obj 136 91 list;
#X obj 133 130 list length;
#X floatatom 132 166 5 0 0 0 - - -, f 5;
#X obj 245 180 list split 1;
#X obj 247 153 list split 3;
#X obj 243 206 select 2;
#X obj 35 8 inlet val;
#X obj 157 8 inlet list;
#X obj 211 293 int;
#X msg 226 259 1;
#X msg 171 250 0;
#X obj 120 245 == 4;
#X obj 129 216 - 1;
#X obj 212 320 outlet result;
#X floatatom 164 325 5 0 0 0 - - -, f 5;
#X floatatom 367 96 5 0 0 0 - - -, f 5;
#X msg 367 65 2;
#X obj 174 33 bng 15 250 50 0 empty empty empty 17 7 0 10 -262144 -1
-1;
#X msg 259 33 2 4 6;
#X msg 214 65 1 4 5;
#X obj 140 287 delay 5;
#X obj 330 324 outlet val;
#X connect 0 0 1 0;
#X connect 0 0 4 0;
#X connect 0 0 16 1;
#X connect 1 0 0 1;
#X connect 2 0 0 1;
#X connect 3 0 0 0;
#X connect 3 0 12 0;
#X connect 4 0 7 0;
#X connect 4 0 23 0;
#X connect 5 0 21 0;
#X connect 7 0 8 0;
#X connect 8 0 9 0;
#X connect 9 0 3 0;
#X connect 10 0 22 0;
#X connect 10 0 2 0;
#X connect 10 0 3 0;
#X connect 12 0 13 0;
#X connect 12 0 16 0;
#X connect 13 0 14 0;
#X connect 14 0 7 1;
#X connect 14 0 24 0;
#X connect 15 0 17 0;
#X connect 16 1 15 0;
#X connect 17 0 5 0;
#X connect 17 1 6 0;
#X connect 17 1 11 0;
#X connect 18 0 17 1;
#X connect 18 0 10 0;
#X connect 18 0 33 0;
#X connect 19 0 12 1;
#X connect 19 0 29 0;
#X connect 20 0 25 0;
#X connect 20 0 26 0;
#X connect 21 0 20 1;
#X connect 22 0 20 1;
#X connect 23 0 32 0;
#X connect 24 0 23 1;
#X connect 27 0 17 1;
#X connect 27 0 10 0;
#X connect 28 0 27 0;
#X connect 30 0 12 1;
#X connect 31 0 12 1;
#X connect 32 0 20 0;
#X restore 107 89 pd inlist;
#X floatatom 105 116 5 0 0 0 - - -, f 5;
#X floatatom 105 44 5 0 0 0 - - -, f 5;
#X floatatom 157 112 5 0 0 0 - - -, f 5;
#X obj 106 167 select -1;
#X obj 106 141 expr if($i1 == 0 && $i2 >= 0 \, $i2 - 1 \, -1);
#X obj 22 164 select 1;
#X obj 23 193 bng 15 250 50 0 empty empty empty 17 7 0 10 -262144 -1
-1;
#X floatatom 159 199 5 0 0 0 - - -, f 5;
#X obj 105 15 inlet pitch;
#X obj 157 42 bng 15 250 50 0 empty empty empty 17 7 0 10 -262144 -1
-1;
#X obj 24 271 outlet pitch;
#X obj 23 221 int;
#X obj 106 64 % 12;
#X obj 67 218 int;
#X obj 65 191 bng 15 250 50 0 empty empty empty 17 7 0 10 -262144 -1
-1;
#X floatatom 24 246 5 0 0 0 - - -, f 5;
#X obj 98 218 - 1;
#X obj 246 18 inlet pitch-class-set;
#X obj 157 66 list;
#X msg 248 74 0 2 4 7 9;
#X obj 250 44 loadbang;
#X connect 0 0 1 0;
#X connect 0 1 3 0;
#X connect 1 0 5 0;
#X connect 1 0 6 0;
#X connect 2 0 12 1;
#X connect 2 0 13 0;
#X connect 2 0 14 1;
#X connect 3 0 5 1;
#X connect 4 1 8 0;
#X connect 5 0 4 0;
#X connect 6 0 7 0;
#X connect 7 0 12 0;
#X connect 8 0 15 0;
#X connect 8 0 0 0;
#X connect 9 0 10 0;
#X connect 9 0 2 0;
#X connect 10 0 19 0;
#X connect 12 0 16 0;
#X connect 13 0 0 0;
#X connect 14 0 17 0;
#X connect 15 0 14 0;
#X connect 16 0 11 0;
#X connect 17 0 14 1;
#X connect 17 0 12 1;
#X connect 18 0 19 1;
#X connect 19 0 0 1;
#X connect 20 0 19 1;
#X connect 21 0 20 0;
#X restore 38 115 pd \$0-pitch-quantise-2;
#X obj 332 15 inlet pc;
#X connect 0 0 2 0;
#X connect 0 0 9 0;
#X connect 0 1 11 0;
#X connect 3 0 7 0;
#X connect 3 0 13 0;
#X connect 4 0 11 0;
#X connect 5 0 10 0;
#X connect 5 0 8 0;
#X connect 6 0 9 2;
#X connect 6 0 12 0;
#X connect 10 0 0 2;
#X connect 10 0 1 0;
#X connect 11 0 9 1;
#X connect 13 0 0 0;
#X connect 14 0 13 1;
#X restore 306 440 pd output-c;
#N canvas 693 195 399 344 agent-c 0;
#X obj 38 17 inlet trigger;
#X obj 223 19 inlet dely-dur;
#X obj 38 145 outlet pitches;
#X obj 133 18 inlet vel;
#X obj 243 85 * 2;
#X obj 219 178 int;
#X obj 219 144 bng 15 250 50 0 empty empty empty 17 7 0 10 -262144
-1 -1;
#X obj 297 84 * 0.3;
#X obj 39 49 delay 1500;
#X obj 156 226 +;
#X obj 119 182 random 20;
#X obj 119 206 - 10;
#X floatatom 113 255 5 0 0 0 - - -, f 5;
#X obj 138 150 t b f;
#X obj 157 303 outlet vel;
#X obj 157 252 max 1;
#X obj 157 277 min 127;
#X obj 219 224 outlet dur;
#X floatatom 219 202 5 0 0 0 - - -, f 5;
#N canvas 159 235 387 359 \$0-arp-agent 0;
#X floatatom 56 109 10 0 0 0 - - -, f 10;
#N canvas 0 22 219 274 lfo 0;
#X floatatom 128 69 5 0 0 0 - - -, f 5;
#N canvas 154 262 208 195 now 0;
#X obj 36 18 inlet;
#X obj 40 139 outlet;
#X obj 39 50 bng 15 250 50 0 empty empty empty 17 7 0 10 -262144 -1
-1;
#X floatatom 40 111 15 0 0 0 - - -, f 15;
#X obj 79 51 r tick;
#X obj 39 83 int;
#X connect 0 0 2 0;
#X connect 2 0 5 0;
#X connect 3 0 1 0;
#X connect 4 0 5 1;
#X connect 5 0 3 0;
#X restore 27 68 pd now;
#X obj 128 30 inlet rate;
#X obj 28 28 inlet trigger;
#X obj 28 234 outlet result;
#X obj 28 181 sin;
#X obj 28 148 * 6.28319;
#X obj 28 122 / 360;
#X obj 27 96 * 1 1;
#X floatatom 28 207 10 0 0 0 - - -, f 10;
#X connect 0 0 8 1;
#X connect 1 0 8 0;
#X connect 2 0 0 0;
#X connect 3 0 1 0;
#X connect 5 0 9 0;
#X connect 6 0 5 0;
#X connect 7 0 6 0;
#X connect 8 0 7 0;
#X connect 9 0 4 0;
#X restore 56 77 pd lfo;
#X floatatom 148 114 5 0 0 0 - - -, f 5;
#X obj 56 145 * 2;
#X text 15 194 pitch;
#X obj 56 169 bng 15 250 50 0 empty empty empty 17 7 0 10 -262144 -1
-1;
#X floatatom 56 224 5 0 0 0 - - -, f 5;
#X obj 118 193 + 0;
#X obj 56 193 float;
#X obj 248 86 random 15;
#X obj 248 112 - 7;
#X obj 248 57 bng 15 250 50 0 empty empty empty 17 7 0 10 -262144 -1
-1;
#X floatatom 248 141 5 0 0 0 - - -, f 5;
#X obj 21 13 inlet trigger;
#X obj 57 297 outlet pitch;
#X obj 125 61 random 60;
#X obj 147 89 / 10;
#X obj 125 37 bng 15 250 50 0 empty empty empty 17 7 0 10 -262144 -1
-1;
#X obj 125 12 inlet rate-change;
#X obj 248 13 inlet int-change;
#X text 146 156 reset pitch;
#X obj 57 250 + 0.5;
#X obj 57 273 int;
#X msg 104 162 72;
#X obj 112 135 loadbang;
#X obj 119 217 expr if($f1 > 30 \, $f1 \, 72);
#X obj 122 244 expr if($f1 < 100 \, $f1 \, 72);
#X connect 0 0 3 0;
#X connect 1 0 0 0;
#X connect 2 0 1 1;
#X connect 3 0 5 0;
#X connect 3 0 7 1;
#X connect 5 0 8 0;
#X connect 6 0 21 0;
#X connect 7 0 25 0;
#X connect 8 0 6 0;
#X connect 8 0 7 0;
#X connect 9 0 10 0;
#X connect 10 0 3 1;
#X connect 10 0 12 0;
#X connect 11 0 9 0;
#X connect 13 0 1 0;
#X connect 15 0 16 0;
#X connect 16 0 2 0;
#X connect 17 0 15 0;
#X connect 18 0 17 0;
#X connect 19 0 11 0;
#X connect 21 0 22 0;
#X connect 22 0 14 0;
#X connect 23 0 8 1;
#X connect 24 0 23 0;
#X connect 25 0 26 0;
#X connect 26 0 8 1;
#X restore 38 116 pd \$0-arp-agent;
#N canvas 295 387 397 287 \$0-onset-delay 0;
#X obj 12 9 inlet tap;
#X obj 256 8 inlet beat-time;
#X obj 31 61 spigot 1;
#X obj 88 9 inlet vel;
#X obj 64 39 bng 15 250 50 0 empty empty empty 17 7 0 10 -262144 -1
-1;
#X obj 12 259 outlet;
#X obj 31 109 delay 500;
#X obj 256 41 / 2;
#X obj 108 114 spigot 1;
#X obj 109 216 delay 250;
#X obj 180 221 delay 750;
#X obj 297 40 / 4;
#X obj 297 68 * 3;
#X obj 180 171 sel 0;
#X obj 180 147 random 2;
#X obj 180 196 bng 15 250 50 0 empty empty empty 17 7 0 10 -262144
-1 -1;
#X obj 108 169 sel 0;
#X obj 108 145 random 2;
#X obj 108 194 bng 15 250 50 0 empty empty empty 17 7 0 10 -262144
-1 -1;
#X obj 38 158 delay 1000;
#X obj 88 38 expr if($i1 < 55 \, 0 \, 1);
#X obj 165 91 expr if($i1 < 70 \, 0 \, 1);
#X connect 0 0 2 0;
#X connect 0 0 5 0;
#X connect 0 0 8 0;
#X connect 1 0 7 0;
#X connect 1 0 11 0;
#X connect 1 0 19 1;
#X connect 2 0 6 0;
#X connect 2 0 19 0;
#X connect 3 0 4 0;
#X connect 3 0 20 0;
#X connect 3 0 21 0;
#X connect 6 0 5 0;
#X connect 7 0 6 1;
#X connect 8 0 14 0;
#X connect 8 0 17 0;
#X connect 9 0 5 0;
#X connect 10 0 5 0;
#X connect 11 0 9 1;
#X connect 11 0 12 0;
#X connect 12 0 10 1;
#X connect 13 0 15 0;
#X connect 14 0 13 0;
#X connect 15 0 10 0;
#X connect 16 0 18 0;
#X connect 17 0 16 0;
#X connect 18 0 9 0;
#X connect 19 0 5 0;
#X connect 20 0 2 1;
#X connect 21 0 8 1;
#X restore 38 86 pd \$0-onset-delay;
#X obj 130 53 expr if($i1 < 55 \, $i2 \, $i2 * 3);
#X obj 160 114 expr if($i1 < 85 \, $i2 \, $i3);
#X connect 0 0 8 0;
#X connect 1 0 4 0;
#X connect 1 0 7 0;
#X connect 1 0 21 1;
#X connect 1 0 20 2;
#X connect 3 0 13 0;
#X connect 3 0 21 0;
#X connect 3 0 22 0;
#X connect 3 0 20 1;
#X connect 4 0 22 1;
#X connect 5 0 18 0;
#X connect 6 0 5 0;
#X connect 6 0 10 0;
#X connect 7 0 22 2;
#X connect 8 0 19 1;
#X connect 8 0 19 2;
#X connect 8 0 20 0;
#X connect 9 0 12 0;
#X connect 9 0 15 0;
#X connect 10 0 11 0;
#X connect 11 0 9 0;
#X connect 13 0 10 0;
#X connect 13 1 9 1;
#X connect 15 0 16 0;
#X connect 16 0 14 0;
#X connect 18 0 17 0;
#X connect 19 0 2 0;
#X connect 19 0 6 0;
#X connect 20 0 19 0;
#X connect 21 0 8 1;
#X connect 22 0 5 1;
#X restore 306 409 pd agent-c;
#N canvas 950 32 412 347 agent-b 0;
#X obj 38 17 inlet trigger;
#X obj 223 19 inlet dely-dur;
#X obj 38 145 outlet pitches;
#X obj 133 18 inlet vel;
#X obj 39 49 delay 1000;
#X obj 244 142 int;
#X obj 219 144 bng 15 250 50 0 empty empty empty 17 7 0 10 -262144
-1 -1;
#X obj 297 84 * 0.3;
#X obj 162 219 +;
#X obj 125 175 random 20;
#X obj 125 199 - 10;
#X floatatom 119 248 5 0 0 0 - - -, f 5;
#X obj 158 146 t b f;
#X obj 162 294 outlet vel;
#X obj 162 243 max 1;
#X obj 162 268 min 127;
#X obj 244 188 outlet dur;
#X floatatom 244 166 5 0 0 0 - - -, f 5;
#N canvas 316 241 387 359 \$0-arp-agent 0;
#X floatatom 56 109 10 0 0 0 - - -, f 10;
#N canvas 0 22 219 274 lfo 0;
#X floatatom 128 69 5 0 0 0 - - -, f 5;
#N canvas 154 262 208 195 now 0;
#X obj 36 18 inlet;
#X obj 40 139 outlet;
#X obj 39 50 bng 15 250 50 0 empty empty empty 17 7 0 10 -262144 -1
-1;
#X floatatom 40 111 15 0 0 0 - - -, f 15;
#X obj 79 51 r tick;
#X obj 39 83 int;
#X connect 0 0 2 0;
#X connect 2 0 5 0;
#X connect 3 0 1 0;
#X connect 4 0 5 1;
#X connect 5 0 3 0;
#X restore 27 68 pd now;
#X obj 128 30 inlet rate;
#X obj 28 28 inlet trigger;
#X obj 28 234 outlet result;
#X obj 28 181 sin;
#X obj 28 148 * 6.28319;
#X obj 28 122 / 360;
#X obj 27 96 * 1 1;
#X floatatom 28 207 10 0 0 0 - - -, f 10;
#X connect 0 0 8 1;
#X connect 1 0 8 0;
#X connect 2 0 0 0;
#X connect 3 0 1 0;
#X connect 5 0 9 0;
#X connect 6 0 5 0;
#X connect 7 0 6 0;
#X connect 8 0 7 0;
#X connect 9 0 4 0;
#X restore 56 77 pd lfo;
#X floatatom 148 114 5 0 0 0 - - -, f 5;
#X obj 56 145 * 2;
#X text 15 194 pitch;
#X obj 56 169 bng 15 250 50 0 empty empty empty 17 7 0 10 -262144 -1
-1;
#X floatatom 56 224 5 0 0 0 - - -, f 5;
#X obj 118 193 + 0;
#X obj 56 193 float;
#X obj 248 86 random 15;
#X obj 248 112 - 7;
#X obj 248 57 bng 15 250 50 0 empty empty empty 17 7 0 10 -262144 -1
-1;
#X floatatom 248 141 5 0 0 0 - - -, f 5;
#X obj 21 13 inlet trigger;
#X obj 56 297 outlet pitch;
#X obj 125 61 random 60;
#X obj 147 89 / 10;
#X obj 125 37 bng 15 250 50 0 empty empty empty 17 7 0 10 -262144 -1
-1;
#X obj 125 12 inlet rate-change;
#X obj 248 13 inlet int-change;
#X text 146 156 reset pitch;
#X obj 57 250 + 0.5;
#X obj 58 273 int;
#X obj 104 131 loadbang;
#X msg 105 155 48;
#X obj 119 217 expr if($f1 > 30 \, $f1 \, 48);
#X obj 122 244 expr if($f1 < 100 \, $f1 \, 48);
#X connect 0 0 3 0;
#X connect 1 0 0 0;
#X connect 2 0 1 1;
#X connect 3 0 5 0;
#X connect 3 0 7 1;
#X connect 5 0 8 0;
#X connect 6 0 21 0;
#X connect 7 0 25 0;
#X connect 8 0 6 0;
#X connect 8 0 7 0;
#X connect 9 0 10 0;
#X connect 10 0 3 1;
#X connect 10 0 12 0;
#X connect 11 0 9 0;
#X connect 13 0 1 0;
#X connect 15 0 16 0;
#X connect 16 0 2 0;
#X connect 17 0 15 0;
#X connect 18 0 17 0;
#X connect 19 0 11 0;
#X connect 21 0 22 0;
#X connect 22 0 14 0;
#X connect 23 0 24 0;
#X connect 24 0 8 1;
#X connect 25 0 26 0;
#X connect 26 0 8 1;
#X restore 38 116 pd \$0-arp-agent;
#N canvas 600 456 370 301 \$0-onset-delay 0;
#X obj 12 9 inlet tap;
#X obj 256 8 inlet beat-time;
#X obj 31 61 spigot 1;
#X obj 88 9 inlet vel;
#X obj 64 39 bng 15 250 50 0 empty empty empty 17 7 0 10 -262144 -1
-1;
#X obj 12 259 outlet;
#X obj 31 109 delay 500;
#X obj 256 41 / 2;
#X obj 108 114 spigot 1;
#X obj 109 216 delay 250;
#X obj 180 221 delay 750;
#X obj 297 40 / 4;
#X obj 297 68 * 3;
#X obj 180 171 sel 0;
#X obj 180 147 random 2;
#X obj 180 196 bng 15 250 50 0 empty empty empty 17 7 0 10 -262144
-1 -1;
#X obj 108 169 sel 0;
#X obj 108 145 random 2;
#X obj 108 194 bng 15 250 50 0 empty empty empty 17 7 0 10 -262144
-1 -1;
#X obj 88 38 expr if($i1 < 45 \, 0 \, 1);
#X obj 165 91 expr if($i1 < 60 \, 0 \, 1);
#X connect 0 0 2 0;
#X connect 0 0 5 0;
#X connect 0 0 8 0;
#X connect 1 0 7 0;
#X connect 1 0 11 0;
#X connect 2 0 6 0;
#X connect 3 0 4 0;
#X connect 3 0 19 0;
#X connect 3 0 20 0;
#X connect 6 0 5 0;
#X connect 7 0 6 1;
#X connect 8 0 14 0;
#X connect 8 0 17 0;
#X connect 9 0 5 0;
#X connect 10 0 5 0;
#X connect 11 0 9 1;
#X connect 11 0 12 0;
#X connect 12 0 10 1;
#X connect 13 0 15 0;
#X connect 14 0 13 0;
#X connect 15 0 10 0;
#X connect 16 0 18 0;
#X connect 17 0 16 0;
#X connect 18 0 9 0;
#X connect 19 0 2 1;
#X connect 20 0 8 1;
#X restore 38 86 pd \$0-onset-delay;
#X floatatom 176 88 5 0 0 0 - - -, f 5;
#X floatatom 348 49 5 0 0 0 - - -, f 5;
#X obj 130 53 expr if($i1 < 45 \, $i2 \, $i2 * 2);
#X obj 160 114 expr if($i1 < 55 \, $i2 \, $i3);
#X obj 243 85 * 1.2;
#X connect 0 0 4 0;
#X connect 1 0 7 0;
#X connect 1 0 21 0;
#X connect 1 0 22 1;
#X connect 1 0 19 2;
#X connect 1 0 24 0;
#X connect 3 0 12 0;
#X connect 3 0 22 0;
#X connect 3 0 23 0;
#X connect 3 0 19 1;
#X connect 4 0 18 1;
#X connect 4 0 18 2;
#X connect 4 0 19 0;
#X connect 5 0 17 0;
#X connect 6 0 5 0;
#X connect 6 0 9 0;
#X connect 7 0 23 2;
#X connect 8 0 11 0;
#X connect 8 0 14 0;
#X connect 9 0 10 0;
#X connect 10 0 8 0;
#X connect 12 0 9 0;
#X connect 12 1 8 1;
#X connect 14 0 15 0;
#X connect 15 0 13 0;
#X connect 17 0 16 0;
#X connect 18 0 2 0;
#X connect 18 0 6 0;
#X connect 19 0 18 0;
#X connect 22 0 4 1;
#X connect 22 0 20 0;
#X connect 23 0 5 1;
#X connect 24 0 23 1;
#X restore 169 409 pd agent-b;
#N canvas 673 252 385 242 agent-a 0;
#X obj 38 17 inlet trigger;
#X obj 223 19 inlet dely-dur;
#X obj 27 175 outlet pitches;
#X obj 133 18 inlet vel;
#X obj 152 206 outlet vel;
#X obj 244 188 outlet dur;
#X obj 244 142 int;
#X obj 199 154 bng 15 100 50 0 empty empty empty 17 7 0 10 -262144
-1 -1;
#X obj 39 49 delay 500;
#X obj 150 146 t b f;
#X floatatom 154 177 5 0 0 0 - - -, f 5;
#X floatatom 244 166 5 0 0 0 - - -, f 5;
#X obj 38 142 t f b;
#N canvas 444 321 390 355 #0-arp-agent 0;
#X floatatom 56 109 10 0 0 0 - - -, f 10;
#N canvas 0 22 219 274 lfo 0;
#X floatatom 128 69 5 0 0 0 - - -, f 5;
#N canvas 154 262 208 195 now 0;
#X obj 36 18 inlet;
#X obj 40 139 outlet;
#X obj 39 50 bng 15 250 50 0 empty empty empty 17 7 0 10 -262144 -1
-1;
#X floatatom 40 111 15 0 0 0 - - -, f 15;
#X obj 79 51 r tick;
#X obj 39 83 int;
#X connect 0 0 2 0;
#X connect 2 0 5 0;
#X connect 3 0 1 0;
#X connect 4 0 5 1;
#X connect 5 0 3 0;
#X restore 27 68 pd now;
#X obj 128 30 inlet rate;
#X obj 28 28 inlet trigger;
#X obj 28 234 outlet result;
#X obj 28 181 sin;
#X obj 28 148 * 6.28319;
#X obj 28 122 / 360;
#X obj 27 96 * 1 1;
#X floatatom 28 207 10 0 0 0 - - -, f 10;
#X connect 0 0 8 1;
#X connect 1 0 8 0;
#X connect 2 0 0 0;
#X connect 3 0 1 0;
#X connect 5 0 9 0;
#X connect 6 0 5 0;
#X connect 7 0 6 0;
#X connect 8 0 7 0;
#X connect 9 0 4 0;
#X restore 56 77 pd lfo;
#X floatatom 148 114 5 0 0 0 - - -, f 5;
#X obj 56 145 * 2;
#X text 15 194 pitch;
#X obj 56 169 bng 15 250 50 0 empty empty empty 17 7 0 10 -262144 -1
-1;
#X floatatom 56 224 5 0 0 0 - - -, f 5;
#X obj 118 193 + 0;
#X obj 56 193 float;
#X obj 248 86 random 15;
#X obj 248 112 - 7;
#X obj 248 57 bng 15 250 50 0 empty empty empty 17 7 0 10 -262144 -1
-1;
#X obj 119 217 expr if($f1 > 30 \, $f1 \, 60);
#X obj 122 244 expr if($f1 < 100 \, $f1 \, 60);
#X floatatom 248 141 5 0 0 0 - - -, f 5;
#X obj 21 13 inlet trigger;
#X obj 58 299 outlet pitch;
#X obj 125 61 random 60;
#X obj 147 89 / 10;
#X obj 125 37 bng 15 250 50 0 empty empty empty 17 7 0 10 -262144 -1
-1;
#X obj 125 12 inlet rate-change;
#X obj 248 13 inlet int-change;
#X text 146 156 reset pitch;
#X obj 57 250 + 0.5;
#X obj 58 273 int;
#X msg 108 156 60;
#X obj 108 130 loadbang;
#X connect 0 0 3 0;
#X connect 1 0 0 0;
#X connect 2 0 1 1;
#X connect 3 0 5 0;
#X connect 3 0 7 1;
#X connect 5 0 8 0;
#X connect 6 0 23 0;
#X connect 7 0 12 0;
#X connect 8 0 6 0;
#X connect 8 0 7 0;
#X connect 9 0 10 0;
#X connect 10 0 3 1;
#X connect 10 0 14 0;
#X connect 11 0 9 0;
#X connect 12 0 13 0;
#X connect 13 0 8 1;
#X connect 15 0 1 0;
#X connect 17 0 18 0;
#X connect 18 0 2 0;
#X connect 19 0 17 0;
#X connect 20 0 19 0;
#X connect 21 0 11 0;
#X connect 23 0 24 0;
#X connect 24 0 16 0;
#X connect 25 0 8 1;
#X connect 26 0 25 0;
#X restore 38 116 pd #0-arp-agent;
#N canvas 933 705 370 295 \$0-onset-delay 0;
#X obj 12 9 inlet tap;
#X obj 256 8 inlet beat-time;
#X obj 31 61 spigot 1;
#X obj 88 9 inlet vel;
#X obj 64 39 bng 15 250 50 0 empty empty empty 17 7 0 10 -262144 -1
-1;
#X obj 88 38 expr if($i1 < 35 \, 0 \, 1);
#X obj 12 259 outlet;
#X obj 31 109 delay 500;
#X obj 256 41 / 2;
#X obj 108 114 spigot 1;
#X obj 109 216 delay 250;
#X obj 180 221 delay 750;
#X obj 297 40 / 4;
#X obj 297 68 * 3;
#X obj 180 171 sel 0;
#X obj 180 147 random 2;
#X obj 180 196 bng 15 250 50 0 empty empty empty 17 7 0 10 -262144
-1 -1;
#X obj 108 169 sel 0;
#X obj 108 145 random 2;
#X obj 108 194 bng 15 250 50 0 empty empty empty 17 7 0 10 -262144
-1 -1;
#X obj 165 91 expr if($i1 < 50 \, 0 \, 1);
#X connect 0 0 2 0;
#X connect 0 0 6 0;
#X connect 0 0 9 0;
#X connect 1 0 8 0;
#X connect 1 0 12 0;
#X connect 2 0 7 0;
#X connect 3 0 4 0;
#X connect 3 0 5 0;
#X connect 3 0 20 0;
#X connect 5 0 2 1;
#X connect 7 0 6 0;
#X connect 8 0 7 1;
#X connect 9 0 15 0;
#X connect 9 0 18 0;
#X connect 10 0 6 0;
#X connect 11 0 6 0;
#X connect 12 0 10 1;
#X connect 12 0 13 0;
#X connect 13 0 11 1;
#X connect 14 0 16 0;
#X connect 15 0 14 0;
#X connect 16 0 11 0;
#X connect 17 0 19 0;
#X connect 18 0 17 0;
#X connect 19 0 10 0;
#X connect 20 0 9 1;
#X restore 38 86 pd \$0-onset-delay;
#X obj 130 53 expr if($i1 < 35 \, $i2 \, $i2);
#X obj 157 113 expr if($i1 < 35 \, $i2 \, $i3);
#X obj 237 88 * 1.2;
#X obj 297 84 * 0.3;
#X connect 0 0 8 0;
#X connect 1 0 15 1;
#X connect 1 0 14 2;
#X connect 1 0 17 0;
#X connect 1 0 18 0;
#X connect 3 0 9 0;
#X connect 3 0 15 0;
#X connect 3 0 16 0;
#X connect 3 0 14 1;
#X connect 6 0 11 0;
#X connect 7 0 6 0;
#X connect 8 0 13 1;
#X connect 8 0 13 2;
#X connect 8 0 14 0;
#X connect 9 1 10 0;
#X connect 10 0 4 0;
#X connect 11 0 5 0;
#X connect 12 0 2 0;
#X connect 12 1 10 0;
#X connect 13 0 12 0;
#X connect 13 0 7 0;
#X connect 14 0 13 0;
#X connect 15 0 8 1;
#X connect 16 0 6 1;
#X connect 17 0 16 1;
#X connect 18 0 16 2;
#X restore 59 412 pd agent-a;
#X obj 349 88 tgl 15 0 empty empty empty 17 7 0 10 -262144 -1 -1 0
1;
#X floatatom 382 76 5 0 0 0 - - -, f 5;
#X msg 368 222 2;
#X msg 401 222 3;
#X msg 433 223 4;
#X obj 376 189 t b b b;
#X msg 349 259 1;
#X text 144 338 comment;
#X text 295 133 MIDI channels (1 or 2-3-4);
#X obj 444 301 ctlin;
#X obj 274 276 t b f;
#X obj 59 254 t b b;
#X msg 128 306 1;
#X obj 144 23 inlet tempo;
#X obj 182 259 noteout;
#X obj 182 233 spigot 0;
#X obj 455 21 inlet pass;
#X obj 16 301 s met, f 6;
#X obj 217 131 s tempo;
#X msg 290 210 1;
#N canvas 0 22 159 262 ave-vel 0;
#X obj 37 37 inlet;
#X obj 45 204 outlet;
#X obj 64 90 f;
#X obj 47 118 +;
#X obj 37 64 t f b;
#X obj 46 148 / 2;
#X floatatom 45 173 5 0 0 0 - - -, f 5;
#X connect 0 0 4 0;
#X connect 2 0 3 1;
#X connect 3 0 5 0;
#X connect 4 0 3 0;
#X connect 4 1 2 0;
#X connect 5 0 2 1;
#X connect 5 0 6 0;
#X connect 6 0 1 0;
#X restore 274 252 pd ave-vel;
#N canvas 644 364 298 204 \$0-recent-pitch-class-set 0;
#X obj 13 15 inlet;
#X obj 13 47 % 12;
#X floatatom 13 74 5 0 0 0 - - -, f 5;
#X obj 13 133 list append;
#X obj 13 99 t f b;
#X obj 13 163 outlet;
#X text 63 17 Accumulate the n most recent;
#X text 64 44 pitch classes and output as a list;
#X obj 75 163 print pcs;
#X obj 150 163 print split;
#X obj 95 133 list split 11;
#X msg 58 100 0 0 0 0 0 0 0 0 0 0 0;
#X obj 58 73 loadbang;
#X obj 125 75 bng 15 250 50 0 empty empty empty 17 7 0 10 -262144 -1
-1;
#X connect 0 0 1 0;
#X connect 1 0 2 0;
#X connect 2 0 4 0;
#X connect 3 0 5 0;
#X connect 3 0 10 0;
#X connect 4 0 3 0;
#X connect 4 1 3 0;
#X connect 10 0 3 1;
#X connect 11 0 3 0;
#X connect 12 0 11 0;
#X connect 13 0 11 0;
#X restore 228 305 pd \$0-recent-pitch-class-set;
#X obj 200 289 f;
#X obj 249 256 bng 15 250 50 0 empty empty empty 17 7 0 10 -262144
-1 -1;
#X obj 149 67 / 2;
#X msg 174 103 60;
#X obj 349 115 sel 0;
#X obj 326 170 bng 15 250 50 0 empty empty empty 17 7 0 10 -262144
-1 -1;
#X obj 398 156 bng 15 250 50 0 empty empty empty 17 7 0 10 -262144
-1 -1;
#X obj 239 23 inlet dyn;
#X obj 239 54 s dyn;
#X obj 416 332 bng 15 250 50 0 empty empty empty 17 7 0 10 -262144
-1 -1;
#X floatatom 508 325 5 0 0 0 - - -, f 5;
#X obj 444 343 ctlout 64 1;
#X obj 452 371 ctlout 64 2;
#X obj 461 397 ctlout 64 3;
#X obj 462 430 ctlout 64 4;
#X text 432 278 Pedal pass through;
#X connect 0 0 5 0;
#X connect 1 0 38 0;
#X connect 2 0 3 0;
#X connect 2 0 4 0;
#X connect 3 0 2 1;
#X connect 4 0 6 0;
#X connect 4 0 11 0;
#X connect 5 0 9 0;
#X connect 5 0 17 0;
#X connect 5 0 57 0;
#X connect 6 0 7 0;
#X connect 7 0 49 0;
#X connect 8 0 18 0;
#X connect 9 0 2 0;
#X connect 10 0 9 1;
#X connect 12 0 16 0;
#X connect 13 0 10 0;
#X connect 15 0 63 0;
#X connect 15 0 25 0;
#X connect 16 0 13 0;
#X connect 16 0 32 0;
#X connect 17 0 2 1;
#X connect 18 0 31 0;
#X connect 18 0 37 0;
#X connect 18 0 36 0;
#X connect 18 0 35 0;
#X connect 19 0 18 1;
#X connect 20 0 19 0;
#X connect 21 0 22 0;
#X connect 21 1 24 0;
#X connect 21 1 52 1;
#X connect 21 2 52 2;
#X connect 22 0 53 0;
#X connect 22 0 60 1;
#X connect 23 0 58 0;
#X connect 23 0 61 0;
#X connect 24 1 23 0;
#X connect 25 0 63 0;
#X connect 25 0 57 0;
#X connect 26 0 27 0;
#X connect 26 1 29 0;
#X connect 26 2 38 0;
#X connect 26 3 39 0;
#X connect 28 0 5 0;
#X connect 29 0 12 0;
#X connect 32 0 37 2;
#X connect 32 0 36 2;
#X connect 32 0 35 2;
#X connect 35 0 34 0;
#X connect 35 1 34 1;
#X connect 35 2 34 2;
#X connect 36 0 33 0;
#X connect 36 1 33 1;
#X connect 36 2 33 2;
#X connect 37 0 30 0;
#X connect 37 1 30 1;
#X connect 37 2 30 2;
#X connect 38 0 64 0;
#X connect 40 0 30 3;
#X connect 41 0 33 3;
#X connect 42 0 34 3;
#X connect 43 0 40 0;
#X connect 43 1 41 0;
#X connect 43 2 42 0;
#X connect 44 0 30 3;
#X connect 44 0 33 3;
#X connect 44 0 34 3;
#X connect 47 0 69 0;
#X connect 47 0 70 0;
#X connect 47 0 71 0;
#X connect 47 0 72 0;
#X connect 47 0 73 0;
#X connect 47 0 74 0;
#X connect 47 1 71 1;
#X connect 47 1 72 1;
#X connect 47 1 73 1;
#X connect 47 1 74 1;
#X connect 48 0 50 0;
#X connect 48 1 37 1;
#X connect 48 1 36 1;
#X connect 48 1 35 1;
#X connect 49 0 20 0;
#X connect 49 1 8 0;
#X connect 49 1 55 0;
#X connect 50 0 19 0;
#X connect 51 0 62 0;
#X connect 53 0 52 0;
#X connect 54 0 53 1;
#X connect 57 0 23 0;
#X connect 58 0 48 0;
#X connect 59 0 30 4;
#X connect 59 0 33 4;
#X connect 59 0 34 4;
#X connect 60 0 59 0;
#X connect 61 0 60 0;
#X connect 62 0 12 0;
#X connect 63 0 12 0;
#X connect 63 0 56 0;
#X connect 64 0 44 0;
#X connect 64 0 65 0;
#X connect 64 1 43 0;
#X connect 64 1 66 0;
#X connect 67 0 68 0;
#X restore 164 179 pd ripples_main;
#X obj 26 40 tgl 100 0 empty empty Start-Stop 17 7 0 10 -4034 -1 -1
0 1;
#X floatatom 148 146 5 0 0 0 bpm - -, f 5;
#X obj 306 97 tgl 40 0 empty empty Ch_2-3-4 -5 -10 0 10 -232576 -1
-1 0 1;
#X obj 27 163 r met;
#X obj 27 184 bng 15 100 50 0 empty empty empty 17 7 0 10 -262144 -1
-1;
#X obj 372 97 tgl 40 0 empty empty Pass_Thru -4 -10 0 10 -262130 -1
-1 0 1;
#X text 284 180 Pd edition: 2016-2017;
#X obj 148 84 loadbang;
#X msg 148 53 120;
#X obj 228 78 loadbang;
#X msg 228 56 30;
#X floatatom 228 145 5 0 0 0 - - -, f 5;
#X obj 228 57 vsl 53 80 0 60 0 0 empty empty Dyn_Range 0 -10 0 10 -228856
-1 -1 5300 1;
#X obj 148 54 vsl 53 80 60 200 0 0 empty empty Tempo 10 -10 0 10 -203904
-1 -1 3386 1;
#X connect 2 0 1 0;
#X connect 3 0 1 1;
#X connect 4 0 1 3;
#X connect 5 0 6 0;
#X connect 7 0 1 4;
#X connect 9 0 10 0;
#X connect 10 0 15 0;
#X connect 11 0 12 0;
#X connect 12 0 14 0;
#X connect 13 0 1 2;
#X connect 14 0 13 0;
#X connect 15 0 3 0;
